@startuml
title UC02 - Definir Área de Atividade - Diagrama de Classes

class DefinirAreaUI {
}

class DefinirAreaController {
    --
    +novaAreaAtividade(String cod, String dsBreve, String dsDet)
    +registaAreaAtividade()
}

class RepositorioAreaAtividade <<Singleton>>{
    --
    +AreaAtividade novaAreaAtividade(String cod, String dsBreve, String dsDet)
    +validaAreaAtividade(AreaAtividade area)
    +registaAreaAtividade(AreaAtividade area)
    -addAreaAtividade(AreaAtividade area)
    }

class Plataforma <<Singleton>>{
    -String designacao
    --
    +RepositorioAreasAtividade getRepositorioAreaAtividade()
}

class AreaAtividade {
    -String codigo
    -String descBreve
    -String descDetalhada
    --
    +AreaAtividade(String cod, String descBreve, String descDet)
}

DefinirAreaUI ..> DefinirAreaController
DefinirAreaController ..> AreaAtividade
DefinirAreaController ..> Plataforma
DefinirAreaController ..> RepositorioAreaAtividade
Plataforma "1"-->"1" RepositorioAreaAtividade : tem
RepositorioAreaAtividade "1"-->"*" AreaAtividade : possui

@enduml