@startuml

left to right direction

title UC07 - Registar Freelancer

class Plataforma {
  -String designacao
}

class Freelancer {
  -String nome
  -String NIF
  -String telefone
  -String email
}

class EnderecoPostal {
  -String local
  -String codPostal
  -String localidade
}

class AlgoritmoGeradorPasswords {

}

class Utilizador {
  -String nome
  -String email
  -String password
}

Plataforma "1" -- "*" Freelancer : tem/usa >
Plataforma "1" -- "1" AlgoritmoGeradorPasswords : recorre a >
Freelancer "0..1" -- "1" EnderecoPostal : tem >
Freelancer "0..1" -- "1" Utilizador : atua como >
AlgoritmoGeradorPasswords "1" -- "*" Utilizador : gera password >

@enduml