@startuml

title UC07 - Registar Freelancer

top to bottom direction

class RegistarFreelancerUI{
    --
    -findByNif(nifFreelancer)
    -registaFreelancer(nome, NIF, enderecoPostal, telefone, email)  
}

class RegistarFreelancerCTRL{
    --
    -findByNif(nifFreelancer)
    -new Freelancer(nome, nif, enderecoPostal, telefone, email)
    -save(freelancer)
}

class GestaoUtilizadoresCTRL {
    --
    -registerUserWithRoles(nome, email, password, rolename)
}

class AlgoritomoGeradorPasswords{
    --
    -geraPassword
}

class Freelancer {
    -String nome
    -String NIF
    -String telefone
    -Email email
}

class EnderecoPostal {
    -String local
    -String codPostal
    -String localidade
}


class RepositorioFreelancer{
    --
    -save(freelancer)
}

class Email {
    -String email
    --
    getEmailUtilizador()
}

RegistarFreelancerUI ..> RegistarFreelancerCTRL
Freelancer --> EnderecoPostal: tem >
Freelancer --> Email: tem >
RepositorioFreelancer -- Freelancer
RegistarFreelancerCTRL ..> RepositorioFreelancer
RegistarFreelancerCTRL ..> GestaoUtilizadoresCTRL
RegistarFreelancerCTRL ..> AlgoritomoGeradorPasswords

@enduml