@startuml

title UC05 - Especificar Colaborador

left to right direction


class EspecificarColaboradorUI{
    --
    -novoColaborador(nome, funcao, telefone, email)
    -registaColaborador()
}

class EspecificarColaboradorCTRL{
    --
    novoColaborador(nome, funcao, telefone, email, nofOrganizacao, password)
    novoUtilizador(nome, email, password, rolename)
    save(colaborador)
    registerUserWithRoles(nome, email, password, "colaborador")
}

class Organizacao {
    -String nome
    -String NIF
    -String website
    -String telefone
    -Email email
}

class Colaborador {
    -String funcao
    -String telefone
    -Organizacao organizacao
}

class Utilizador {
    -String nome
    -Email email
    -Password password
}

class GestaoUtilizadoresController{
    getGestaoUtilizadoresController()
    --
    getSessaoActual()
    getEmail()
}

class RepositorioOrganizacao{
    --
    findNifByEmail(emailGestor)
}

interface AlgoritmoGeradorPasswords{
    geraPassword()
}

class Password{
    String password
    --
    getPassword()
}

class Email {
    -String email
    --
}

EspecificarColaboradorUI ..> EspecificarColaboradorCTRL
EspecificarColaboradorCTRL ..> Plataforma
EspecificarColaboradorCTRL ..> GestaoUtilizadoresFacade
EspecificarColaboradorCTRL ..> SessaoUtilizador
Organizacao -- Colaborador: possui >
Colaborador --|> UtilizadorComPapel
UtilizadorComPapel --|> Utilizador
Email -- Utilizador: < possui
Password -- Utilizador: < possui
Email -- Organizacao: < possui
Organizacao -- RepositorioOrganizacao
Colaborador -- SessaoAtual: tem >
EspecificarColaboradorCTRL ..> UtilizadorComPapel
EspecificarColaboradorCTRL ..> AlgoritmoGeradorPasswords
Plataforma ..> RepositorioOrganizacao


@enduml